<svg viewBox="0 0 22 22" fill="none" xmlns="http://www.w3.org/2000/svg"><path d="M16 18.1429C16 19.7208 17.1193 21 18.5 21C19.8807 21 21 19.7208 21 18.1429C21 16.5649 19.8807 15.2857 18.5 15.2857C17.1193 15.2857 16 16.5649 16 18.1429ZM16 18.1429H5.16667C4.0616 18.1429 3.00179 17.6412 2.22039 16.7481C1.43899 15.8551 1 14.6439 1 13.381C1 12.118 1.43899 10.9068 2.22039 10.0138C3.00179 9.12075 4.0616 8.61905 5.16667 8.61905H15.1667C16.0507 8.61905 16.8986 8.21769 17.5237 7.50326C18.1488 6.78884 18.5 5.81987 18.5 4.80952C18.5 3.79918 18.1488 2.83021 17.5237 2.11578C16.8986 1.40136 16.0507 1 15.1667 1H5.16667" stroke="currentColor" stroke-linecap="round" stroke-linejoin="round"/></svg>