<svg width="29" height="27" viewBox="0 0 29 27" fill="none" xmlns="http://www.w3.org/2000/svg">
<path d="M1.34961 13.5H28.1621M1.34961 19.5938H28.1621M1.34961 25.6875H28.1621M4.39648 1.3125H25.1152C25.9233 1.3125 26.6983 1.63351 27.2697 2.20491C27.8411 2.77631 28.1621 3.55129 28.1621 4.35938C28.1621 5.16746 27.8411 5.94244 27.2697 6.51384C26.6983 7.08524 25.9233 7.40625 25.1152 7.40625H4.39648C3.5884 7.40625 2.81342 7.08524 2.24202 6.51384C1.67062 5.94244 1.34961 5.16746 1.34961 4.35938C1.34961 3.55129 1.67062 2.77631 2.24202 2.20491C2.81342 1.63351 3.5884 1.3125 4.39648 1.3125Z" stroke="black" stroke-width="1.5" stroke-linecap="round" stroke-linejoin="round"/>
</svg>
