<svg viewBox="0 0 15 15" fill="none" xmlns="http://www.w3.org/2000/svg"><path d="M1.125 2.25C1.74632 2.25 2.25 1.74632 2.25 1.125C2.25 0.50368 1.74632 0 1.125 0C0.50368 0 0 0.50368 0 1.125C0 1.74632 0.50368 2.25 1.125 2.25Z" fill="currentColor"/><path d="M7.5 2.25C8.12132 2.25 8.625 1.74632 8.625 1.125C8.625 0.50368 8.12132 0 7.5 0C6.87868 0 6.375 0.50368 6.375 1.125C6.375 1.74632 6.87868 2.25 7.5 2.25Z" fill="currentColor"/><path d="M13.875 2.25C14.4963 2.25 15 1.74632 15 1.125C15 0.50368 14.4963 0 13.875 0C13.2537 0 12.75 0.50368 12.75 1.125C12.75 1.74632 13.2537 2.25 13.875 2.25Z" fill="currentColor"/><path d="M1.125 8.625C1.74632 8.625 2.25 8.12132 2.25 7.5C2.25 6.87868 1.74632 6.375 1.125 6.375C0.50368 6.375 0 6.87868 0 7.5C0 8.12132 0.50368 8.625 1.125 8.625Z" fill="currentColor"/><path d="M7.5 8.625C8.12132 8.625 8.625 8.12132 8.625 7.5C8.625 6.87868 8.12132 6.375 7.5 6.375C6.87868 6.375 6.375 6.87868 6.375 7.5C6.375 8.12132 6.87868 8.625 7.5 8.625Z" fill="currentColor"/><path d="M13.875 8.625C14.4963 8.625 15 8.12132 15 7.5C15 6.87868 14.4963 6.375 13.875 6.375C13.2537 6.375 12.75 6.87868 12.75 7.5C12.75 8.12132 13.2537 8.625 13.875 8.625Z" fill="currentColor"/><path d="M1.125 15C1.74632 15 2.25 14.4963 2.25 13.875C2.25 13.2537 1.74632 12.75 1.125 12.75C0.50368 12.75 0 13.2537 0 13.875C0 14.4963 0.50368 15 1.125 15Z" fill="currentColor"/><path d="M7.5 15C8.12132 15 8.625 14.4963 8.625 13.875C8.625 13.2537 8.12132 12.75 7.5 12.75C6.87868 12.75 6.375 13.2537 6.375 13.875C6.375 14.4963 6.87868 15 7.5 15Z" fill="currentColor"/><path d="M13.875 15C14.4963 15 15 14.4963 15 13.875C15 13.2537 14.4963 12.75 13.875 12.75C13.2537 12.75 12.75 13.2537 12.75 13.875C12.75 14.4963 13.2537 15 13.875 15Z" fill="currentColor"/></svg>