<svg viewBox="0 0 34 34" fill="none" xmlns="http://www.w3.org/2000/svg"><path d="M25.279 0.389715C25.5889 0.419132 25.7226 0.794807 25.5024 1.01457L10.1151 16.376C9.94084 16.55 9.81616 16.7672 9.75387 17.0052L7.90446 24.0737C7.78001 24.5493 7.91749 25.0552 8.26569 25.4028C8.61389 25.7504 9.12059 25.8877 9.59704 25.7634L16.6774 23.9171C16.9158 23.8549 17.1334 23.7305 17.3076 23.5565L32.9129 7.97747C33.1318 7.75889 33.5062 7.88967 33.5385 8.19709C34.1886 14.3807 34.1519 20.6181 33.4281 26.7956C33.0161 30.3129 30.1843 33.0746 26.6733 33.4664C20.2963 34.1779 13.7037 34.1779 7.32667 33.4664C3.81575 33.0746 0.983934 30.3129 0.57186 26.7956C-0.19062 20.2874 -0.19062 13.7126 0.57186 7.20437C0.983934 3.68705 3.81575 0.925383 7.32668 0.533645C13.24 -0.126143 19.3387 -0.17412 25.279 0.389715Z" fill="currentColor"/><path d="M27.7698 2.66763C27.9503 2.48772 28.2426 2.48772 28.4231 2.66762L31.0389 5.27896C31.2194 5.45922 31.2194 5.75148 31.0389 5.93173L15.7009 21.2439C15.6431 21.3016 15.5698 21.3433 15.4908 21.3642L11.9502 22.2874C11.6088 22.3762 11.2978 22.0649 11.3864 21.7241L12.3111 18.1898C12.3319 18.1105 12.3735 18.0381 12.4315 17.9801L27.7698 2.66763Z" fill="currentColor"/></svg>