<svg viewBox="0 0 22 22" fill="none" xmlns="http://www.w3.org/2000/svg"><path d="M5.79006 17.6274L2.36957 20.7854C2.24809 20.8975 2.09999 20.9692 1.94266 20.9921C1.78534 21.015 1.62535 20.988 1.48149 20.9144C1.33764 20.8408 1.2159 20.7237 1.13061 20.5767C1.04531 20.4297 1 20.2591 1 20.0848V1.91521C1 1.67248 1.0878 1.43969 1.24408 1.26806C1.40036 1.09642 1.61232 1 1.83333 1H20.1667C20.3877 1 20.5996 1.09642 20.7559 1.26806C20.9122 1.43969 21 1.67248 21 1.91521V16.5585C21 16.8013 20.9122 17.034 20.7559 17.2057C20.5996 17.3773 20.3877 17.4737 20.1667 17.4737H6.17405L5.79006 17.6274Z" stroke="currentColor" stroke-linecap="round" stroke-linejoin="round"/><path d="M7.6665 7.40649H14.3332" stroke="currentColor" stroke-linecap="round" stroke-linejoin="round"/><path d="M7.6665 11.0674H14.3332" stroke="currentColor" stroke-linecap="round" stroke-linejoin="round"/></svg>