<svg viewBox="0 0 25 24" fill="none" xmlns="http://www.w3.org/2000/svg"><path d="M1 1V23M6.00073 3.00061H18.0007C18.553 3.00061 19.0007 3.44833 19.0007 4.00061V9.00061C19.0007 9.5529 18.553 10.0006 18.0007 10.0006H6.00073C5.44845 10.0006 5.00073 9.5529 5.00073 9.00061V4.00061C5.00073 3.44833 5.44845 3.00061 6.00073 3.00061ZM6.00073 14.0006H23.0007C23.553 14.0006 24.0007 14.4483 24.0007 15.0006V20.0006C24.0007 20.5529 23.553 21.0006 23.0007 21.0006H6.00073C5.44845 21.0006 5.00073 20.5529 5.00073 20.0006V15.0006C5.00073 14.4483 5.44845 14.0006 6.00073 14.0006Z" stroke="currentColor" stroke-linecap="round" stroke-linejoin="round"/></svg>