<svg viewBox="0 0 26 25" fill="none" xmlns="http://www.w3.org/2000/svg"><path d="M0.440595 23.7487C0.302454 23.9878 0.384304 24.2936 0.62341 24.4318C0.862517 24.5699 1.16834 24.4881 1.30648 24.249L0.440595 23.7487ZM24.6935 24.2492C24.8316 24.4883 25.1374 24.5702 25.3765 24.432C25.6157 24.2939 25.6975 23.9881 25.5594 23.749L24.6935 24.2492ZM20.4999 9C20.4999 13.1421 17.142 16.5 12.9999 16.5V17.5C17.6943 17.5 21.4999 13.6944 21.4999 9H20.4999ZM12.9999 16.5C8.85777 16.5 5.49991 13.1421 5.49991 9H4.49991C4.49991 13.6944 8.30549 17.5 12.9999 17.5V16.5ZM5.49991 9C5.49991 4.85786 8.85777 1.5 12.9999 1.5V0.5C8.30549 0.5 4.49991 4.30558 4.49991 9H5.49991ZM12.9999 1.5C17.142 1.5 20.4999 4.85786 20.4999 9H21.4999C21.4999 4.30558 17.6943 0.5 12.9999 0.5V1.5ZM1.30648 24.249C2.49203 22.1969 4.19673 20.4929 6.24932 19.3083L5.74945 18.4422C3.54487 19.7145 1.71394 21.5447 0.440595 23.7487L1.30648 24.249ZM6.24932 19.3083C8.30192 18.1236 10.63 17.5 12.9999 17.5L12.9999 16.5C10.4545 16.5 7.95403 17.1698 5.74945 18.4422L6.24932 19.3083ZM12.9999 17.5C15.3698 17.5 17.6982 18.1237 19.7507 19.3084L20.2506 18.4423C18.0461 17.1699 15.5453 16.5 12.9999 16.5L12.9999 17.5ZM19.7507 19.3084C21.8033 20.4931 23.508 22.1971 24.6935 24.2492L25.5594 23.749C24.2861 21.5449 22.4552 19.7147 20.2506 18.4423L19.7507 19.3084Z" fill="currentColor"/></svg>