<svg viewBox="0 0 24 24" fill="none" xmlns="http://www.w3.org/2000/svg"><path d="M12 16.4C14.5313 16.4 16.5833 13.9376 16.5833 10.9C16.5833 7.86243 14.5313 5.4 12 5.4C9.4687 5.4 7.41667 7.86243 7.41667 10.9C7.41667 13.9376 9.4687 16.4 12 16.4ZM12 16.4C10.2937 16.4 8.62944 17.0346 7.23611 18.2164C5.84279 19.3982 4.78895 21.0692 4.21962 22.9994M12 16.4C13.7063 16.4 15.3706 17.0346 16.7639 18.2164C18.1572 19.3982 19.2111 21.0692 19.7804 22.9994M1.91667 1H22.0833C22.5896 1 23 1.49249 23 2.1V21.9C23 22.5075 22.5896 23 22.0833 23H1.91667C1.41041 23 1 22.5075 1 21.9V2.1C1 1.49249 1.41041 1 1.91667 1Z" stroke="currentColor" stroke-linecap="round" stroke-linejoin="round"/></svg>