<svg viewBox="0 0 24 28" fill="none" xmlns="http://www.w3.org/2000/svg"><path d="M15.6355 7.16286L8.36415 11.8373M8.36415 16.1627L15.6355 20.8371M9 14C9 16.2091 7.20914 18 5 18C2.79086 18 1 16.2091 1 14C1 11.7909 2.79086 10 5 10C7.20914 10 9 11.7909 9 14ZM23 23C23 25.2091 21.2091 27 19 27C16.7909 27 15 25.2091 15 23C15 20.7909 16.7909 19 19 19C21.2091 19 23 20.7909 23 23ZM23 5C23 7.20914 21.2091 9 19 9C16.7909 9 15 7.20914 15 5C15 2.79086 16.7909 1 19 1C21.2091 1 23 2.79086 23 5Z" stroke="currentColor" stroke-linecap="round" stroke-linejoin="round"/></svg>