<svg viewBox="0 0 22 22" fill="none" xmlns="http://www.w3.org/2000/svg"><path d="M9 5.95763V19.3418C9 19.4843 8.96748 19.6245 8.90534 19.7501C8.84319 19.8758 8.75334 19.9828 8.64376 20.0619L7.54455 20.8546C7.43788 20.9316 7.31568 20.9796 7.18825 20.9948C7.06082 21.01 6.93188 20.9918 6.81231 20.9418C6.69273 20.8918 6.58602 20.8114 6.50116 20.7074C6.41629 20.6035 6.35577 20.479 6.32467 20.3444L5 14.6122M9 5.95763H5C3.93913 5.95763 2.92172 6.41354 2.17157 7.22506C1.42143 8.03659 1 9.13725 1 10.2849C1 11.4326 1.42143 12.5332 2.17157 13.3448C2.92172 14.1563 3.93913 14.6122 5 14.6122M9 5.95763C9 5.95763 14.4452 5.95763 19.6851 1.20328C19.8016 1.09717 19.9438 1.02926 20.0948 1.00755C20.2458 0.985832 20.3993 1.01121 20.5375 1.0807C20.6756 1.15019 20.7925 1.2609 20.8744 1.39981C20.9563 1.53872 20.9999 1.70005 21 1.86484V18.705C20.9999 18.8698 20.9563 19.0311 20.8744 19.17C20.7925 19.3089 20.6756 19.4196 20.5375 19.4891C20.3993 19.5586 20.2458 19.584 20.0948 19.5623C19.9438 19.5406 19.8016 19.4727 19.6851 19.3666C14.4452 14.6122 9 14.6122 9 14.6122H5" stroke="currentColor" stroke-linecap="round" stroke-linejoin="round"/></svg>