<svg viewBox="0 0 27 24" fill="none" xmlns="http://www.w3.org/2000/svg"><path d="M8 12H13M18 19H16C15.2044 19 14.4413 18.6839 13.8787 18.1213C13.3161 17.5587 13 16.7956 13 16V8C13 7.20435 13.3161 6.44129 13.8787 5.87868C14.4413 5.31607 15.2044 5 16 5H18M2 8.5H7C7.55228 8.5 8 8.94772 8 9.5V14.5C8 15.0523 7.55228 15.5 7 15.5H2C1.44772 15.5 1 15.0523 1 14.5V9.5C1 8.94772 1.44772 8.5 2 8.5ZM19 1H25C25.5523 1 26 1.44772 26 2V8C26 8.55228 25.5523 9 25 9H19C18.4477 9 18 8.55228 18 8V2C18 1.44772 18.4477 1 19 1ZM19 15H25C25.5523 15 26 15.4477 26 16V22C26 22.5523 25.5523 23 25 23H19C18.4477 23 18 22.5523 18 22V16C18 15.4477 18.4477 15 19 15Z" stroke="currentColor" stroke-linecap="round" stroke-linejoin="round"/></svg>