<svg width="28" height="28" viewBox="0 0 28 28" fill="none" xmlns="http://www.w3.org/2000/svg">
<g filter="url(#filter0_d_9018_27281)">
<path d="M14.5635 5.85773L20.1423 11.4365M10.5278 20.9491L5.05069 15.472M10.2486 21H5.79696C5.58559 21 5.38288 20.916 5.23342 20.7666C5.08397 20.6171 5 20.4144 5 20.203V15.7514C5 15.6467 5.02061 15.5431 5.06066 15.4464C5.10072 15.3497 5.15942 15.2618 5.23343 15.1878L17.1878 3.23342C17.3373 3.08396 17.54 3 17.7514 3C17.9627 3 18.1655 3.08396 18.3149 3.23342L22.7666 7.68508C22.916 7.83454 23 8.03725 23 8.24862C23 8.45998 22.916 8.66269 22.7666 8.81215L10.8122 20.7666C10.7381 20.8406 10.6503 20.8993 10.5536 20.9393C10.4569 20.9794 10.3533 21 10.2486 21Z" stroke="currentColor" stroke-linecap="round" stroke-linejoin="round" shape-rendering="crispEdges"/>
</g>
<defs>
<filter id="filter0_d_9018_27281" x="0.5" y="0.5" width="27" height="27" filterUnits="userSpaceOnUse" color-interpolation-filters="sRGB">
<feFlood flood-opacity="0" result="BackgroundImageFix"/>
<feColorMatrix in="SourceAlpha" type="matrix" values="0 0 0 0 0 0 0 0 0 0 0 0 0 0 0 0 0 0 127 0" result="hardAlpha"/>
<feOffset dy="2"/>
<feGaussianBlur stdDeviation="2"/>
<feComposite in2="hardAlpha" operator="out"/>
<feColorMatrix type="matrix" values="0 0 0 0 0 0 0 0 0 0 0 0 0 0 0 0 0 0 0.25 0"/>
<feBlend mode="normal" in2="BackgroundImageFix" result="effect1_dropShadow_9018_27281"/>
<feBlend mode="normal" in="SourceGraphic" in2="effect1_dropShadow_9018_27281" result="shape"/>
</filter>
</defs>
</svg>
