<svg viewBox="0 0 30 25" fill="none" xmlns="http://www.w3.org/2000/svg"><path d="M1 24H29M16.9993 24V2C16.9993 1.73478 16.8939 1.48043 16.7064 1.29289C16.5188 1.10536 16.2645 1 15.9993 1H3.99927C3.73405 1 3.4797 1.10536 3.29216 1.29289C3.10462 1.48043 2.99927 1.73478 2.99927 2V24M26.9993 24V10C26.9993 9.73478 26.8939 9.48043 26.7064 9.29289C26.5188 9.10536 26.2645 9 25.9993 9H16.9993M6.99927 6H10.9993M8.99927 14H12.9993M6.99927 19H10.9993M20.9993 19H22.9993M20.9993 14H22.9993" stroke="currentColor" stroke-linecap="round" stroke-linejoin="round"/></svg>