<svg viewBox="0 0 30 27" fill="none" xmlns="http://www.w3.org/2000/svg"><path d="M29 10.2105H29.5C29.5 10.1612 29.4927 10.1122 29.4784 10.0651L29 10.2105ZM21 3.63158V3.13158C20.7239 3.13158 20.5 3.35544 20.5 3.63158H21ZM26.323 3.63158L26.323 3.13158H26.323V3.63158ZM27.2514 4.4587L27.7298 4.31327L27.7298 4.31327L27.2514 4.4587ZM1 13.6579C0.723858 13.6579 0.5 13.8818 0.5 14.1579C0.5 14.434 0.723858 14.6579 1 14.6579V13.6579ZM21 14.6579C21.2761 14.6579 21.5 14.434 21.5 14.1579C21.5 13.8818 21.2761 13.6579 21 13.6579V14.6579ZM1 20.7368H0.5H1ZM2 1V1.5V1ZM21 1H21.5C21.5 0.723858 21.2761 0.5 21 0.5V1ZM20.5 18.6341C20.5 18.9102 20.7239 19.1341 21 19.1341C21.2761 19.1341 21.5 18.9102 21.5 18.6341H20.5ZM29 9.71053H21V10.7105H29V9.71053ZM21.5 10.2105V3.63158H20.5V10.2105H21.5ZM21 4.13158H26.323V3.13158H21V4.13158ZM26.323 4.13158C26.3865 4.13158 26.4663 4.15572 26.551 4.23115L27.2162 3.48446C26.9699 3.26503 26.6591 3.13158 26.323 3.13158L26.323 4.13158ZM26.551 4.23115C26.638 4.30866 26.7214 4.43433 26.7731 4.60412L27.7298 4.31327C27.633 3.99474 27.4602 3.70181 27.2162 3.48446L26.551 4.23115ZM26.7731 4.60412L28.5216 10.356L29.4784 10.0651L27.7298 4.31327L26.7731 4.60412ZM1 14.6579H21V13.6579H1V14.6579ZM25 22.0526C25 23.0434 24.6942 23.9216 24.2232 24.5413C23.7525 25.1606 23.1386 25.5 22.5 25.5V26.5C23.5182 26.5 24.4043 25.9557 25.0194 25.1464C25.6342 24.3374 26 23.242 26 22.0526H25ZM22.5 25.5C21.8614 25.5 21.2475 25.1606 20.7768 24.5413C20.3058 23.9216 20 23.0434 20 22.0526H19C19 23.242 19.3658 24.3374 19.9806 25.1464C20.5957 25.9557 21.4818 26.5 22.5 26.5V25.5ZM20 22.0526C20 21.0619 20.3058 20.1837 20.7768 19.564C21.2475 18.9446 21.8614 18.6053 22.5 18.6053V17.6053C21.4818 17.6053 20.5957 18.1495 19.9806 18.9589C19.3658 19.7678 19 20.8633 19 22.0526H20ZM22.5 18.6053C23.1386 18.6053 23.7525 18.9446 24.2232 19.564C24.6942 20.1837 25 21.0619 25 22.0526H26C26 20.8633 25.6342 19.7678 25.0194 18.9589C24.4043 18.1495 23.5182 17.6053 22.5 17.6053V18.6053ZM10 22.0526C10 23.0434 9.69421 23.9216 9.22324 24.5413C8.75255 25.1606 8.13861 25.5 7.5 25.5V26.5C8.51825 26.5 9.4043 25.9557 10.0194 25.1464C10.6342 24.3374 11 23.242 11 22.0526H10ZM7.5 25.5C6.86139 25.5 6.24745 25.1606 5.77676 24.5413C5.30579 23.9216 5 23.0434 5 22.0526H4C4 23.242 4.36578 24.3374 4.9806 25.1464C5.59569 25.9557 6.48175 26.5 7.5 26.5V25.5ZM5 22.0526C5 21.0619 5.30579 20.1837 5.77676 19.564C6.24745 18.9446 6.86139 18.6053 7.5 18.6053V17.6053C6.48175 17.6053 5.59569 18.1495 4.9806 18.9589C4.36578 19.7678 4 20.8633 4 22.0526H5ZM7.5 18.6053C8.13861 18.6053 8.75255 18.9446 9.22324 19.564C9.69421 20.1837 10 21.0619 10 22.0526H11C11 20.8633 10.6342 19.7678 10.0194 18.9589C9.4043 18.1495 8.51825 17.6053 7.5 17.6053V18.6053ZM19.5 21.5526H10.5V22.5526H19.5V21.5526ZM4.5 21.5526H2V22.5526H4.5V21.5526ZM2 21.5526C1.9186 21.5526 1.80199 21.5108 1.69097 21.3647L0.894812 21.9698C1.15887 22.3172 1.55096 22.5526 2 22.5526V21.5526ZM1.69097 21.3647C1.5778 21.2158 1.5 20.991 1.5 20.7368H0.5C0.5 21.1806 0.632913 21.6252 0.894812 21.9698L1.69097 21.3647ZM1.5 20.7368V2.31579H0.5V20.7368H1.5ZM1.5 2.31579C1.5 2.06164 1.5778 1.83684 1.69097 1.68793L0.894812 1.08284C0.632914 1.42745 0.5 1.872 0.5 2.31579H1.5ZM1.69097 1.68793C1.80199 1.54186 1.91861 1.5 2 1.5L2 0.5C1.55096 0.5 1.15887 0.735399 0.894812 1.08284L1.69097 1.68793ZM2 1.5H21V0.5H2V1.5ZM20.5 1V18.6341H21.5V1H20.5ZM21.5 18.6341V10.2105H20.5V18.6341H21.5ZM28.5 10.2105V20.7368H29.5V10.2105H28.5ZM28.5 20.7368C28.5 20.991 28.4222 21.2158 28.309 21.3647L29.1052 21.9698C29.3671 21.6252 29.5 21.1806 29.5 20.7368H28.5ZM28.309 21.3647C28.198 21.5108 28.0814 21.5526 28 21.5526V22.5526C28.449 22.5526 28.8411 22.3172 29.1052 21.9698L28.309 21.3647ZM28 21.5526H25.5V22.5526H28V21.5526Z" fill="currentColor"/></svg>