<svg viewBox="0 0 34 34" fill="none" xmlns="http://www.w3.org/2000/svg"><path d="M6.987 4.83556C9.01 5.1 10.438 5.93111 11.9 7.55556L13.6 9.44445L8.075 15.5833C8.602 15.81 9.027 16.0933 9.384 16.32C10.013 16.7544 10.387 17 11.339 17C12.291 17 12.665 16.7544 13.294 16.32C14.076 15.81 15.13 15.1111 17.017 15.1111C18.904 15.1111 19.958 15.81 20.723 16.32C21.352 16.7356 21.743 17 22.678 17C23.613 17 24.004 16.7544 24.633 16.32C24.837 16.1878 25.075 16.0367 25.33 15.8856L14.416 3.77778C12.274 1.39778 10.268 0.377778 7.31 0.0944444C6.12 -0.0188889 5.1 1.05778 5.1 2.38V2.55C5.1 3.74 5.933 4.68444 6.987 4.83556ZM32.895 30.0522C32.606 29.9389 32.351 29.7689 32.045 29.5422C31.28 29.0322 30.226 28.3333 28.339 28.3333C26.452 28.3333 25.398 29.0322 24.633 29.5422C24.004 29.9767 23.613 30.2222 22.678 30.2222C21.743 30.2222 21.352 29.9578 20.723 29.5422C19.958 29.0322 18.904 28.3333 17.017 28.3333C15.13 28.3333 14.076 29.0322 13.294 29.5422C12.665 29.9767 12.291 30.2222 11.339 30.2222C10.387 30.2222 10.013 29.9767 9.384 29.5422C8.619 29.0322 7.565 28.3333 5.678 28.3333C3.791 28.3333 2.737 29.0322 1.955 29.5422C1.649 29.75 1.394 29.92 1.105 30.0522C0.459 30.2978 0 30.9022 0 31.6578V31.8844C0 33.15 1.122 34.0189 2.21 33.6033C2.839 33.3578 3.315 33.0367 3.723 32.7722C4.352 32.3567 4.743 32.1111 5.678 32.1111C6.613 32.1111 7.004 32.3567 7.633 32.7911C8.398 33.3011 9.452 34 11.339 34C13.226 34 14.28 33.3011 15.062 32.7911C15.691 32.3567 16.065 32.1111 17.017 32.1111C17.952 32.1111 18.343 32.3756 18.972 32.7911C19.737 33.3011 20.791 34 22.678 34C24.565 34 25.602 33.3011 26.384 32.7911C27.013 32.3567 27.387 32.1111 28.339 32.1111C29.274 32.1111 29.665 32.3756 30.294 32.7911C30.685 33.0556 31.161 33.3767 31.79 33.6222C32.861 34.0378 34 33.1689 34 31.9033V31.6767C34 30.9022 33.541 30.2978 32.895 30.0522ZM1.887 25.2167C2.686 24.9711 3.264 24.5933 3.74 24.2911C4.369 23.8567 4.76 23.6111 5.695 23.6111C6.63 23.6111 7.021 23.8756 7.65 24.2911C8.415 24.8011 9.469 25.5 11.356 25.5C13.243 25.5 14.297 24.8011 15.062 24.2911C15.691 23.8567 16.065 23.6111 17.017 23.6111C17.952 23.6111 18.343 23.8756 18.972 24.2911C19.737 24.8011 20.791 25.5 22.678 25.5C24.565 25.5 25.619 24.8011 26.384 24.2911C27.013 23.8567 27.387 23.6111 28.339 23.6111C29.274 23.6111 29.665 23.8756 30.294 24.2911C30.685 24.5556 31.144 24.8578 31.739 25.1033C32.81 25.5378 33.966 24.65 33.966 23.3844V23.1578C33.966 22.4022 33.507 21.7978 32.878 21.5333C32.589 21.42 32.334 21.25 32.011 21.0422C31.246 20.5322 30.192 19.8333 28.305 19.8333C26.418 19.8333 25.364 20.5322 24.599 21.0422C23.97 21.4767 23.579 21.7222 22.644 21.7222C21.709 21.7222 21.318 21.4578 20.689 21.0422C19.924 20.5322 18.87 19.8333 16.983 19.8333C15.096 19.8333 14.042 20.5322 13.277 21.0422C12.648 21.4767 12.274 21.7222 11.322 21.7222C10.387 21.7222 9.996 21.4578 9.367 21.0422C8.602 20.5322 7.548 19.8333 5.661 19.8333C3.774 19.8333 2.72 20.5322 1.955 21.0422C1.649 21.25 1.394 21.42 1.105 21.5522C0.459 21.7978 0 22.4022 0 23.1578V23.5922C0 24.6878 0.935 25.5189 1.887 25.2167Z" fill="currentColor"/><path d="M24.65 9.44445C26.9972 9.44445 28.9 7.33023 28.9 4.72222C28.9 2.11421 26.9972 0 24.65 0C22.3028 0 20.4 2.11421 20.4 4.72222C20.4 7.33023 22.3028 9.44445 24.65 9.44445Z" fill="currentColor"/></svg>