<svg viewBox="0 0 22 22" fill="none" xmlns="http://www.w3.org/2000/svg"><path d="M11 15.7806C13.6402 15.7806 15.7806 13.6402 15.7806 11C15.7806 8.3597 13.6402 6.21935 11 6.21935C8.3597 6.21935 6.21935 8.3597 6.21935 11C6.21935 13.6402 8.3597 15.7806 11 15.7806Z" stroke="currentColor" stroke-linecap="round" stroke-linejoin="round"/><path d="M16.5435 4.73403C16.7987 4.95995 17.0399 5.20115 17.2658 5.45631L19.987 5.84489C20.4283 6.61331 20.7685 7.43549 20.9993 8.29104L19.3505 10.4893C19.3505 10.4893 19.3713 11.1705 19.3506 11.5106L21 13.7096C20.7687 14.565 20.4279 15.3869 19.9861 16.155L17.2658 16.5436C17.2658 16.5436 16.7988 17.0399 16.5437 17.2658L16.1551 19.987C15.3867 20.4283 14.5645 20.7685 13.709 20.9993L11.5108 19.3506C11.1707 19.3713 10.8295 19.3713 10.4894 19.3506L8.29044 21C7.43504 20.7687 6.61309 20.4279 5.84496 19.9861L5.45646 17.266C5.2013 17.0401 4.96009 16.7989 4.73417 16.5437L2.01298 16.1551C1.57169 15.3867 1.23146 14.5645 1.00072 13.709L2.64947 11.5107C2.64947 11.5107 2.62873 10.8295 2.64941 10.4894L1 8.29044C1.23132 7.43504 1.57211 6.61309 2.01392 5.84496L4.73403 5.45646C4.95995 5.2013 5.20115 4.96009 5.45631 4.73417L5.84489 2.01298C6.61331 1.57169 7.43549 1.23146 8.29104 1.00072L10.4892 2.64941C10.8293 2.62873 11.1705 2.62873 11.5106 2.64941L13.7096 1C14.565 1.23132 15.3869 1.57211 16.155 2.01392L16.5435 4.73403Z" stroke="currentColor" stroke-linecap="round" stroke-linejoin="round"/></svg>