<svg viewBox="0 0 17 20" fill="none" xmlns="http://www.w3.org/2000/svg"><path d="M5.74122 15.4V16.12C5.74122 16.8838 6.03187 17.6164 6.54925 18.1565C7.06662 18.6966 7.76833 19 8.5 19C9.23168 19 9.93338 18.6966 10.4508 18.1565C10.9681 17.6164 11.2588 16.8838 11.2588 16.12V15.4M2.31024 7.47996C2.3091 6.62605 2.46987 5.78034 2.78327 4.99159C3.09668 4.20284 3.55653 3.48665 4.13631 2.88429C4.7161 2.28194 5.40435 1.80534 6.1614 1.48196C6.91845 1.15858 7.72932 0.994823 8.54728 1.00012C11.9604 1.02661 14.6904 3.98825 14.6904 7.56131V8.19997C14.6904 11.4234 15.3365 13.2939 15.9054 14.3162C15.9667 14.4255 15.9993 14.5496 16 14.6762C16.0006 14.8028 15.9693 14.9274 15.9091 15.0373C15.849 15.1472 15.7621 15.2386 15.6573 15.3023C15.5525 15.366 15.4334 15.3997 15.3122 15.4H1.68784C1.56656 15.3997 1.4475 15.366 1.34269 15.3023C1.23787 15.2386 1.151 15.1471 1.09083 15.0372C1.03067 14.9273 0.999341 14.8027 1.00001 14.6761C1.00068 14.5495 1.03332 14.4253 1.09465 14.3161C1.66393 13.2937 2.31024 11.4232 2.31024 8.19997L2.31024 7.47996Z" stroke="currentColor" stroke-linecap="round" stroke-linejoin="round"/></svg>