<svg viewBox="0 0 34 34" fill="none" xmlns="http://www.w3.org/2000/svg"><path d="M14.45 0.772396L1.7 9.5165C0.637501 10.2549 0 11.4013 0 12.6255V30.1137C0 32.2512 1.9125 34 4.25 34H29.75C32.0875 34 34 32.2512 34 30.1137V12.6255C34 11.4013 33.3625 10.2549 32.3 9.5165L19.55 0.772396C18.0412 -0.257465 15.9588 -0.257465 14.45 0.772396ZM18.0625 17.4834C18.0625 19.0962 16.6388 20.3981 14.875 20.3981V27.199C14.875 27.7431 14.4075 28.1706 13.8125 28.1706C13.2175 28.1706 12.75 27.7431 12.75 27.199V20.3981C10.9862 20.3981 9.5625 19.0962 9.5625 17.4834V12.6255C9.5625 12.0814 10.03 11.654 10.625 11.654C11.22 11.654 11.6875 12.0814 11.6875 12.6255V17.4834H12.75V12.6255C12.75 12.0814 13.2175 11.654 13.8125 11.654C14.4075 11.654 14.875 12.0814 14.875 12.6255V17.4834H15.9375V12.6255C15.9375 12.0814 16.405 11.654 17 11.654C17.595 11.654 18.0625 12.0814 18.0625 12.6255V17.4834ZM22.3125 28.1706C21.7175 28.1706 21.25 27.7431 21.25 27.199V21.3696H20.1875C19.5925 21.3696 19.125 20.9421 19.125 20.3981V15.5402C19.125 13.8303 20.3363 12.3729 22.015 11.8677C22.6737 11.6539 23.375 12.1397 23.375 12.8004V27.199C23.375 27.7431 22.9075 28.1706 22.3125 28.1706Z" fill="currentColor"/></svg>