<svg viewBox="0 0 24 24" fill="none" xmlns="http://www.w3.org/2000/svg"><path d="M18.5 1H22C22.2652 1 22.5196 1.10536 22.7071 1.29289C22.8946 1.48043 23 1.73478 23 2V5.49995M18.5 23H22C22.2652 23 22.5196 22.8946 22.7071 22.7071C22.8946 22.5196 23 22.2652 23 22V18.5M5.5 23H2C1.73478 23 1.48043 22.8946 1.29289 22.7071C1.10536 22.5196 1 22.2652 1 22V18.5M5.5 1H2C1.73478 1 1.48043 1.10536 1.29289 1.29289C1.10536 1.48043 1 1.73478 1 2V5.49995M12 14C14.2091 14 16 12.2091 16 10C16 7.79086 14.2091 6 12 6C9.79086 6 8 7.79086 8 10C8 12.2091 9.79086 14 12 14ZM12 14C10.6348 14 9.29548 14.3725 8.12631 15.0773C6.95714 15.7822 6.00245 16.7927 5.36507 18M12 14C13.3652 14 14.7045 14.3725 15.8737 15.0773C17.0429 15.7822 17.9976 16.7927 18.6349 18" stroke="currentColor" stroke-linecap="round" stroke-linejoin="round"/></svg>