<svg viewBox="0 0 36 36" fill="none" xmlns="http://www.w3.org/2000/svg"><path d="M10.5 6C10.5 4.335 9.165 3 7.5 3C5.835 3 4.5 4.335 4.5 6C4.5 7.665 5.835 9 7.5 9C9.165 9 10.5 7.665 10.5 6ZM15.285 6.75C14.67 6.75 14.145 7.125 13.905 7.695C13.245 9.345 11.64 10.5 9.75 10.5H5.25C4.005 10.5 3 11.505 3 12.75V16.5H12V13.11C14.145 12.435 15.87 10.815 16.68 8.745C17.07 7.785 16.32 6.75 15.285 6.75ZM28.5 25.5C30.165 25.5 31.5 24.165 31.5 22.5C31.5 20.835 30.165 19.5 28.5 19.5C26.835 19.5 25.5 20.835 25.5 22.5C25.5 24.165 26.835 25.5 28.5 25.5ZM30.75 27H26.25C24.36 27 22.755 25.845 22.095 24.195C21.87 23.625 21.33 23.25 20.715 23.25C19.68 23.25 18.93 24.285 19.305 25.245C20.13 27.315 21.84 28.935 23.985 29.61V33H32.985V29.25C33 28.005 31.995 27 30.75 27ZM25.875 16.635C25.875 16.635 25.875 16.62 25.89 16.635C24.3 17.04 23.04 18.3 22.635 19.89V19.875C22.47 20.52 21.87 21 21.165 21C20.34 21 19.665 20.325 19.665 19.5C19.665 19.425 19.695 19.29 19.695 19.29C20.34 16.515 22.53 14.325 25.32 13.695C25.38 13.695 25.44 13.68 25.5 13.68C26.325 13.68 27 14.355 27 15.18C27 15.87 26.52 16.47 25.875 16.635ZM27 9.09C27 9.855 26.445 10.47 25.71 10.575C20.925 11.16 17.16 14.94 16.575 19.725C16.47 20.445 15.84 21 15.09 21C14.265 21 13.59 20.325 13.59 19.5C13.59 19.47 13.59 19.44 13.59 19.41C13.59 19.395 13.59 19.38 13.59 19.365C14.34 13.185 19.275 8.295 25.47 7.59H25.485C26.325 7.59 27 8.265 27 9.09Z" fill="currentColor"/></svg>