<svg viewBox="0 0 22 22" fill="none" xmlns="http://www.w3.org/2000/svg"><path d="M6.15676 1.85741C6.15676 1.36329 5.77197 0.962731 5.2973 0.962731H1.85946C1.38479 0.962731 1 1.36329 1 1.85741V19.751C1 20.2451 1.38479 20.6457 1.85946 20.6457H5.2973C5.77197 20.6457 6.15676 20.2451 6.15676 19.751M6.15676 1.85741V19.751M6.15676 1.85741C6.15676 1.36329 6.54155 0.962731 7.01622 0.962731H10.4541C10.9287 0.962731 11.3135 1.36329 11.3135 1.85741V19.751C11.3135 20.2451 10.9287 20.6457 10.4541 20.6457H7.01622C6.54155 20.6457 6.15676 20.2451 6.15676 19.751M1 5.43613H6.15676M6.15676 16.1723H11.3135M15.0996 16.5256L20.0806 15.1362M12.4302 6.15523L17.4113 4.76587M12.1483 1.6027L15.469 0.67646C15.9275 0.548572 16.3987 0.831813 16.5216 1.3091L20.9705 18.593C21.0934 19.0703 20.8213 19.5609 20.3628 19.6888L17.0421 20.615C16.5836 20.7429 16.1123 20.4597 15.9894 19.9824L11.5405 2.69846C11.4177 2.22118 11.6898 1.73059 12.1483 1.6027Z" stroke="currentColor" stroke-linecap="round" stroke-linejoin="round"/></svg>