<svg viewBox="0 0 22 22" fill="none" xmlns="http://www.w3.org/2000/svg"><path d="M11.0218 11.5252L13.9209 19.9004C13.9482 19.9792 13.9997 20.0475 14.0681 20.0953C14.1365 20.1431 14.2183 20.1681 14.3017 20.1666C14.3852 20.1652 14.466 20.1374 14.5327 20.0872C14.5994 20.037 14.6485 19.9671 14.6731 19.8873L15.8384 16.1002C15.8573 16.0385 15.8911 15.9824 15.9368 15.9368C15.9824 15.8911 16.0385 15.8573 16.1002 15.8383L19.8873 14.6731C19.9671 14.6485 20.037 14.5994 20.0872 14.5327C20.1374 14.466 20.1652 14.3852 20.1666 14.3017C20.1681 14.2183 20.1431 14.1365 20.0953 14.0681C20.0475 13.9997 19.9792 13.9482 19.9004 13.9209L11.5252 11.0218C11.455 10.9975 11.3794 10.9934 11.307 11.0101C11.2347 11.0267 11.1684 11.0634 11.1159 11.1159C11.0634 11.1684 11.0267 11.2347 11.0101 11.307C10.9934 11.3794 10.9975 11.455 11.0218 11.5252Z" stroke="currentColor" stroke-linecap="round" stroke-linejoin="round"/><path d="M1.56946 7.66667H20.4304M1.56985 14.3333H7.33581M21 11C20.4304 6.83333 -1.91667 3.5 11 21C5.47715 21 1 16.5228 1 11C1 5.47715 5.47715 1 11 1C16.5228 1 21 5.47715 21 11Z" stroke="currentColor" stroke-miterlimit="10" stroke-linecap="round"/></svg>