<svg viewBox="0 0 34 34" fill="none" xmlns="http://www.w3.org/2000/svg"><path d="M9.91667 25.5C8.35833 25.5 7.0975 26.775 7.0975 28.3333C7.0975 29.8917 8.35833 31.1667 9.91667 31.1667C11.475 31.1667 12.75 29.8917 12.75 28.3333C12.75 26.775 11.475 25.5 9.91667 25.5ZM1.41667 4.25C1.41667 5.02917 2.05417 5.66667 2.83333 5.66667H4.25L9.35 16.4192L7.4375 19.8758C6.40333 21.7742 7.76333 24.0833 9.91667 24.0833H25.5C26.2792 24.0833 26.9167 23.4458 26.9167 22.6667C26.9167 21.8875 26.2792 21.25 25.5 21.25H9.91667L11.475 18.4167H22.0292C23.0917 18.4167 24.0267 17.8358 24.5083 16.9575L29.58 7.76333C30.1042 6.82833 29.4242 5.66667 28.3475 5.66667H7.38083L6.43167 3.64083C6.205 3.145 5.695 2.83333 5.15667 2.83333H2.83333C2.05417 2.83333 1.41667 3.47083 1.41667 4.25ZM24.0833 25.5C22.525 25.5 21.2642 26.775 21.2642 28.3333C21.2642 29.8917 22.525 31.1667 24.0833 31.1667C25.6417 31.1667 26.9167 29.8917 26.9167 28.3333C26.9167 26.775 25.6417 25.5 24.0833 25.5Z" fill="currentColor"/></svg>