<svg viewBox="0 0 24 24" fill="none" xmlns="http://www.w3.org/2000/svg"><path d="M9.06667 1V4.66667M12 1V4.66667M14.9333 1V4.66667M23 10.1667L20.0667 12.9167M1 10.1667L3.93333 12.9167M4.66667 8.33333H19.3333C19.5278 8.33333 19.7144 8.42991 19.8519 8.60182C19.9894 8.77373 20.0667 9.00689 20.0667 9.25V20.25C20.0667 20.9793 19.8349 21.6788 19.4223 22.1945C19.0097 22.7103 18.4501 23 17.8667 23H6.13333C5.54986 23 4.99028 22.7103 4.5777 22.1945C4.16512 21.6788 3.93333 20.9793 3.93333 20.25V9.25C3.93333 9.00689 4.0106 8.77373 4.14812 8.60182C4.28565 8.42991 4.47217 8.33333 4.66667 8.33333Z" stroke="currentColor" stroke-linecap="round" stroke-linejoin="round"/></svg>